<mxfile host="65bd71144e">
    <diagram id="4uY1Wkv4jOmvWr4ypLzb" name="Page-1">
        <mxGraphModel dx="1066" dy="614" grid="1" gridSize="10" guides="1" tooltips="1" connect="1" arrows="1" fold="1" page="1" pageScale="1" pageWidth="850" pageHeight="1100" math="0" shadow="0">
            <root>
                <mxCell id="0"/>
                <mxCell id="1" parent="0"/>
                <mxCell id="2" value="" style="whiteSpace=wrap;html=1;" vertex="1" parent="1">
                    <mxGeometry x="10" y="60" width="830" height="1010" as="geometry"/>
                </mxCell>
                <mxCell id="3" value="&lt;h1&gt;&lt;b&gt;Final Year Project Database&amp;nbsp;&lt;/b&gt;&lt;/h1&gt;" style="text;html=1;align=center;verticalAlign=middle;resizable=0;points=[];autosize=1;strokeColor=none;fillColor=none;" vertex="1" parent="1">
                    <mxGeometry x="240" width="340" height="70" as="geometry"/>
                </mxCell>
                <mxCell id="4" value="" style="whiteSpace=wrap;html=1;" vertex="1" parent="1">
                    <mxGeometry x="30" y="100" width="800" height="930" as="geometry"/>
                </mxCell>
                <mxCell id="5" value="&lt;h1&gt;&lt;b&gt;Tables&lt;/b&gt;&lt;/h1&gt;" style="text;strokeColor=none;align=center;fillColor=none;html=1;verticalAlign=middle;whiteSpace=wrap;rounded=0;" vertex="1" parent="1">
                    <mxGeometry x="395" y="70" width="60" height="30" as="geometry"/>
                </mxCell>
                <mxCell id="6" value="&lt;h1&gt;&lt;b&gt;Seller Table&lt;/b&gt;&lt;/h1&gt;&lt;h3&gt;&lt;font color=&quot;#66ff66&quot;&gt;&lt;b style=&quot;&quot;&gt;Id, Seller Name, Seller Email ,&lt;/b&gt;&lt;/font&gt;&lt;/h3&gt;&lt;h3&gt;&lt;font color=&quot;#66ff66&quot;&gt;&lt;b style=&quot;&quot;&gt;Seller Phone,&amp;nbsp;&lt;/b&gt;Seller picture,&lt;/font&gt;&lt;/h3&gt;&lt;h3&gt;&lt;font color=&quot;#66ff66&quot;&gt;&amp;nbsp;&lt;b style=&quot;background-color: initial; font-size: 12px;&quot;&gt;Password,&amp;nbsp;&lt;/b&gt;&lt;b style=&quot;background-color: initial; font-size: 12px;&quot;&gt;C-Password&lt;/b&gt;&lt;/font&gt;&lt;/h3&gt;" style="whiteSpace=wrap;html=1;" vertex="1" parent="1">
                    <mxGeometry x="50" y="120" width="330" height="190" as="geometry"/>
                </mxCell>
                <mxCell id="14" value="&lt;h1&gt;&lt;b&gt;LaptopTable&lt;/b&gt;&lt;/h1&gt;&lt;h3&gt;&lt;font color=&quot;#66ff66&quot;&gt;&lt;b style=&quot;&quot;&gt;Id, Laptop Title, Laptop Description,&lt;/b&gt;&lt;/font&gt;&lt;/h3&gt;&lt;h3&gt;&lt;font color=&quot;#66ff66&quot;&gt;&lt;b style=&quot;&quot;&gt;&amp;nbsp;Picture 1, Picture 2, Picture 3&lt;/b&gt;&lt;/font&gt;&lt;/h3&gt;" style="whiteSpace=wrap;html=1;" vertex="1" parent="1">
                    <mxGeometry x="50" y="330" width="330" height="190" as="geometry"/>
                </mxCell>
                <mxCell id="15" value="&lt;h1&gt;Cameras Table&lt;/h1&gt;&lt;h3&gt;&lt;font color=&quot;#66ff66&quot;&gt;&lt;b style=&quot;&quot;&gt;Id, CameraTitle, Camera Description,&lt;/b&gt;&lt;/font&gt;&lt;/h3&gt;&lt;h3&gt;&lt;font color=&quot;#66ff66&quot;&gt;&lt;b style=&quot;&quot;&gt;&amp;nbsp;Picture 1, Picture 2, Picture 3&lt;/b&gt;&lt;/font&gt;&lt;/h3&gt;" style="whiteSpace=wrap;html=1;" vertex="1" parent="1">
                    <mxGeometry x="50" y="550" width="330" height="190" as="geometry"/>
                </mxCell>
                <mxCell id="16" value="&lt;h1&gt;&lt;b&gt;Headphones Table&lt;/b&gt;&lt;/h1&gt;&lt;h3&gt;&lt;font color=&quot;#66ff66&quot;&gt;&lt;b style=&quot;&quot;&gt;Id, Headphone Title, Headphone Description, Picture 1, Picture 2, Picture 3&lt;/b&gt;&lt;/font&gt;&lt;/h3&gt;" style="whiteSpace=wrap;html=1;" vertex="1" parent="1">
                    <mxGeometry x="50" y="790" width="330" height="190" as="geometry"/>
                </mxCell>
                <mxCell id="17" value="&lt;h1&gt;&lt;b&gt;Monitors Table&lt;/b&gt;&lt;/h1&gt;&lt;h3&gt;&lt;font color=&quot;#66ff66&quot;&gt;&lt;b style=&quot;&quot;&gt;Id, Monitor Title, Monitor Description, Picture 1, Picture 2, Picture 3&lt;/b&gt;&lt;/font&gt;&lt;/h3&gt;" style="whiteSpace=wrap;html=1;" vertex="1" parent="1">
                    <mxGeometry x="480" y="120" width="330" height="190" as="geometry"/>
                </mxCell>
                <mxCell id="18" value="&lt;h1&gt;&lt;b&gt;Personal Computers Table&lt;/b&gt;&lt;/h1&gt;&lt;h3&gt;&lt;font color=&quot;#66ff66&quot;&gt;&lt;b style=&quot;&quot;&gt;Id, Personal Computer Title,&lt;/b&gt;&lt;/font&gt;&lt;/h3&gt;&lt;h3&gt;&lt;b style=&quot;background-color: initial; color: rgb(102, 255, 102); font-size: 12px;&quot;&gt;&amp;nbsp;Personal Computer Description,&lt;/b&gt;&lt;/h3&gt;&lt;h3&gt;&lt;b style=&quot;background-color: initial; color: rgb(102, 255, 102); font-size: 12px;&quot;&gt;&amp;nbsp;Picture 1, Picture 2, Picture 3&lt;/b&gt;&lt;/h3&gt;" style="whiteSpace=wrap;html=1;" vertex="1" parent="1">
                    <mxGeometry x="480" y="550" width="330" height="190" as="geometry"/>
                </mxCell>
                <mxCell id="19" value="&lt;h1&gt;Laptop Stands Table&lt;/h1&gt;&lt;h3&gt;&lt;font color=&quot;#66ff66&quot;&gt;&lt;b style=&quot;&quot;&gt;Id, Laptop Stand Title, Laptop Stand Description,&lt;/b&gt;&lt;/font&gt;&lt;/h3&gt;&lt;h3&gt;&lt;font color=&quot;#66ff66&quot;&gt;&lt;b style=&quot;&quot;&gt;&amp;nbsp;Picture 1, Picture 2, Picture 3&lt;/b&gt;&lt;/font&gt;&lt;/h3&gt;" style="whiteSpace=wrap;html=1;" vertex="1" parent="1">
                    <mxGeometry x="480" y="330" width="330" height="190" as="geometry"/>
                </mxCell>
                <mxCell id="20" value="&lt;h1&gt;&lt;b&gt;New Arrivals Table&lt;/b&gt;&lt;/h1&gt;&lt;h3&gt;&lt;font color=&quot;#66ff66&quot;&gt;&lt;b style=&quot;&quot;&gt;Id, New Product Title,&lt;/b&gt;&lt;/font&gt;&lt;/h3&gt;&lt;h3&gt;&lt;b style=&quot;background-color: initial; color: rgb(102, 255, 102); font-size: 12px;&quot;&gt;&amp;nbsp;New Product Price,&lt;/b&gt;&lt;/h3&gt;&lt;h3&gt;&lt;b style=&quot;background-color: initial; color: rgb(102, 255, 102); font-size: 12px;&quot;&gt;&amp;nbsp;Picture 1&lt;/b&gt;&lt;/h3&gt;" style="whiteSpace=wrap;html=1;" vertex="1" parent="1">
                    <mxGeometry x="480" y="790" width="330" height="190" as="geometry"/>
                </mxCell>
            </root>
        </mxGraphModel>
    </diagram>
</mxfile>